<?xml version="1.0" encoding="utf-8"?>
<!-- Generator: Adobe Illustrator 25.0.0, SVG Export Plug-In . SVG Version: 6.00 Build 0)  -->
<svg version="1.1" id="Layer_1" xmlns="http://www.w3.org/2000/svg" xmlns:xlink="http://www.w3.org/1999/xlink" x="0px" y="0px"
	 viewBox="0 0 1366 768" style="enable-background:new 0 0 1366 768;" xml:space="preserve">
<style type="text/css">
	.st0{fill:#009DD4;}
	.st1{fill:#0097E9;}
	.st2{fill:#FF6612;}
</style>
<g>
	<g>
		<path class="st0" d="M618.81,71.5c16.78,0,33.56,0,50.35,0c39.95,0,79.91,0,119.86,0c48.64,0,97.28,0,145.92,0
			c41.77,0,83.55,0,125.32,0c20.43,0,40.91,0.36,61.34,0c0.28-0.01,0.56,0,0.84,0c18.31,0,35.85-16.1,35-35
			c-0.85-18.96-15.38-35-35-35c-16.78,0-33.56,0-50.35,0c-39.95,0-79.91,0-119.86,0c-48.64,0-97.28,0-145.92,0
			c-41.77,0-83.55,0-125.32,0c-20.43,0-40.91-0.36-61.34,0c-0.28,0.01-0.56,0-0.84,0c-18.31,0-35.85,16.1-35,35
			C584.66,55.46,599.19,71.5,618.81,71.5L618.81,71.5z"/>
	</g>
	<line class="st1" x1="618.81" y1="36.5" x2="1122.44" y2="36.5"/>
</g>
<g>
	<g>
		<path class="st0" d="M1099.02,12.66c-8.97,10.42-17.95,20.83-26.92,31.25c-21.55,25.01-43.09,50.02-64.64,75.02
			c-25.95,30.12-51.91,60.24-77.86,90.37c-22.54,26.16-45.08,52.32-67.62,78.48c-10.96,12.72-22.03,25.36-32.89,38.17
			c-0.15,0.18-0.31,0.36-0.46,0.54c-6.14,7.13-10.25,15.08-10.25,24.75c0,8.58,3.81,18.84,10.25,24.75
			c13.12,12.04,36.74,14.81,49.5,0c8.97-10.42,17.95-20.83,26.92-31.25c21.55-25.01,43.09-50.02,64.64-75.02
			c25.95-30.12,51.91-60.24,77.86-90.37c22.54-26.16,45.08-52.32,67.62-78.48c10.96-12.72,22.03-25.36,32.89-38.17
			c0.15-0.18,0.31-0.36,0.46-0.54c6.14-7.13,10.25-15.08,10.25-24.75c0-8.58-3.81-18.84-10.25-24.75
			C1135.4,0.62,1111.78-2.15,1099.02,12.66L1099.02,12.66z"/>
	</g>
</g>
<g>
	<g>
		<path class="st0" d="M1205.75,707.25c-10.76-12.41-21.53-24.82-32.29-37.24c-25.84-29.8-51.68-59.6-77.53-89.4
			c-31.14-35.91-62.28-71.82-93.42-107.72c-26.93-31.06-53.87-62.11-80.8-93.17c-13.14-15.16-25.92-30.74-39.48-45.53
			c-0.19-0.21-0.38-0.43-0.56-0.65c-5.63-6.49-16.42-10.25-24.75-10.25c-8.58,0-18.84,3.81-24.75,10.25
			c-6.12,6.67-10.67,15.43-10.25,24.75c0.43,9.65,3.9,17.43,10.25,24.75c10.76,12.41,21.53,24.82,32.29,37.24
			c25.84,29.8,51.68,59.6,77.53,89.4c31.14,35.91,62.28,71.82,93.42,107.72c26.93,31.06,53.87,62.11,80.8,93.17
			c13.14,15.16,25.92,30.74,39.48,45.53c0.19,0.21,0.38,0.43,0.56,0.65c5.63,6.49,16.42,10.25,24.75,10.25
			c8.58,0,18.84-3.81,24.75-10.25c6.12-6.67,10.67-15.43,10.25-24.75C1215.57,722.35,1212.1,714.57,1205.75,707.25L1205.75,707.25z"
			/>
	</g>
</g>
<g>
	<g>
		<path class="st0" d="M767.4,401.54c-8.06,10.12-16.13,20.24-24.19,30.36c-19.37,24.31-38.74,48.61-58.11,72.92
			c-23.44,29.42-46.89,58.84-70.33,88.26c-20.29,25.46-40.57,50.91-60.86,76.37c-9.91,12.43-19.84,24.84-29.72,37.29
			c-0.14,0.17-0.27,0.34-0.41,0.51c-6.01,7.54-10.25,14.71-10.25,24.75c0,8.58,3.81,18.84,10.25,24.75
			c6.67,6.12,15.43,10.67,24.75,10.25c8.66-0.39,19.09-3.15,24.75-10.25c8.06-10.12,16.13-20.24,24.19-30.36
			c19.37-24.31,38.74-48.61,58.11-72.92c23.44-29.42,46.89-58.84,70.33-88.26c20.29-25.46,40.57-50.91,60.86-76.37
			c9.91-12.43,19.84-24.84,29.72-37.29c0.14-0.17,0.27-0.34,0.41-0.51c6.01-7.54,10.25-14.71,10.25-24.75
			c0-8.58-3.81-18.84-10.25-24.75c-6.67-6.12-15.43-10.67-24.75-10.25C783.49,391.67,773.06,394.44,767.4,401.54L767.4,401.54z"/>
	</g>
	<line class="st1" x1="792.15" y1="426.28" x2="548.53" y2="732"/>
</g>
<g>
	<g>
		<path d="M699.91,162.7c24.99-0.09,49.99-0.17,74.98-0.26c39.81-0.14,79.61-0.27,119.42-0.41c9.1-0.03,18.19-0.06,27.29-0.09
			c17-0.06,33.29-14.91,32.5-32.5c-0.79-17.56-14.28-32.56-32.5-32.5c-24.99,0.09-49.99,0.17-74.98,0.26
			c-39.81,0.14-79.61,0.27-119.42,0.41c-9.1,0.03-18.19,0.06-27.29,0.09c-17,0.06-33.29,14.91-32.5,32.5
			C668.2,147.76,681.69,162.76,699.91,162.7L699.91,162.7z"/>
	</g>
	<line class="st1" x1="699.91" y1="130.2" x2="921.61" y2="129.44"/>
</g>
<g>
	<g>
		<path d="M816.59,283.11c13.92-14.18,27.83-28.36,41.75-42.54c22.07-22.49,44.15-44.98,66.22-67.46
			c5.13-5.22,10.25-10.45,15.38-15.67c11.92-12.15,13.02-34.01,0-45.96c-12.87-11.82-33.24-12.96-45.96,0
			c-13.92,14.18-27.83,28.36-41.75,42.54c-22.07,22.49-44.15,44.98-66.22,67.46c-5.13,5.22-10.25,10.45-15.38,15.67
			c-11.92,12.15-13.02,34.01,0,45.96C783.51,294.93,803.87,296.07,816.59,283.11L816.59,283.11z"/>
	</g>
	<line class="st1" x1="793.61" y1="260.13" x2="916.96" y2="134.46"/>
</g>
<g>
	<g>
		<path class="st2" d="M124.78,54.16c3.5,6.19,7.01,12.38,10.51,18.58c9.54,16.85,19.07,33.7,28.61,50.56
			c14.1,24.93,28.21,49.85,42.31,74.78c17.21,30.42,34.42,60.84,51.63,91.25c18.86,33.32,37.71,66.65,56.57,99.97
			c19.04,33.64,38.07,67.29,57.11,100.93c17.83,31.5,35.65,63.01,53.48,94.51c15,26.5,29.99,53.01,44.99,79.51
			c10.78,19.06,21.57,38.11,32.35,57.17c5.11,9.02,10.1,18.12,15.32,27.08c0.22,0.38,0.44,0.77,0.66,1.16
			c9.02,15.94,32.15,22.7,47.89,12.56c16.12-10.39,22.21-30.83,12.56-47.89c-3.5-6.19-7.01-12.38-10.51-18.58
			c-9.54-16.85-19.07-33.7-28.61-50.56c-14.1-24.93-28.21-49.85-42.31-74.78c-17.21-30.42-34.42-60.84-51.63-91.25
			c-18.86-33.32-37.71-66.65-56.57-99.97c-19.04-33.64-38.07-67.29-57.11-100.93c-17.83-31.5-35.65-63.01-53.48-94.51
			c-15-26.5-29.99-53.01-44.99-79.51c-10.78-19.06-21.57-38.11-32.35-57.17c-5.11-9.02-10.1-18.13-15.32-27.08
			c-0.22-0.38-0.44-0.77-0.66-1.16c-9.02-15.94-32.15-22.7-47.89-12.56C121.22,16.67,115.13,37.1,124.78,54.16L124.78,54.16z"/>
	</g>
	<line class="st1" x1="155" y1="36.5" x2="548.53" y2="732"/>
</g>
<g>
	<g>
		<path class="st2" d="M137.84,65.22c12.42,6.77,24.84,13.54,37.26,20.31c29.82,16.26,59.64,32.51,89.46,48.77
			c36.07,19.66,72.13,39.32,108.2,58.98c31.06,16.93,62.12,33.86,93.18,50.79c15.18,8.27,30.25,16.77,45.55,24.83
			c0.22,0.11,0.43,0.24,0.65,0.35c16.07,8.76,38.88,4.49,47.89-12.56c8.64-16.36,4.61-38.53-12.56-47.89
			c-12.42-6.77-24.84-13.54-37.26-20.31c-29.82-16.26-59.64-32.51-89.46-48.77c-36.07-19.66-72.13-39.32-108.2-58.98
			c-31.06-16.93-62.12-33.86-93.18-50.79c-15.18-8.27-30.25-16.77-45.55-24.83c-0.22-0.11-0.43-0.24-0.65-0.35
			c-16.07-8.76-38.88-4.49-47.89,12.56C116.64,33.69,120.67,55.86,137.84,65.22L137.84,65.22z"/>
	</g>
	<line class="st1" x1="155.51" y1="35" x2="529.79" y2="239.03"/>
</g>
</svg>
